<svg xmlns="http://www.w3.org/2000/svg" xmlns:xlink="http://www.w3.org/1999/xlink" width="1080" zoomAndPan="magnify" viewBox="0 0 810 809.999993" height="1080" preserveAspectRatio="xMidYMid meet" version="1.0"><defs><clipPath id="11c31c2163"><path d="M 260 655 L 369 655 L 369 763.574219 L 260 763.574219 Z M 260 655 " clip-rule="nonzero"/></clipPath><clipPath id="0dcb829a72"><path d="M 491 655 L 600 655 L 600 763.574219 L 491 763.574219 Z M 491 655 " clip-rule="nonzero"/></clipPath><clipPath id="dc0fe2f2c2"><path d="M 65 46.574219 L 810 46.574219 L 810 544 L 65 544 Z M 65 46.574219 " clip-rule="nonzero"/></clipPath></defs><path fill="#ffffff" d="M 700.402344 356.574219 C 700.171875 358.660156 699.941406 360.976562 699.710938 363.0625 L 669.125 557.21875 C 663.796875 591.277344 641.554688 615.605469 615.835938 615.605469 L 278.960938 615.605469 C 255.792969 615.605469 235.402344 595.910156 227.757812 566.488281 L 208.527344 492.113281 C 284.753906 546.097656 356.578125 573.4375 423.535156 573.4375 C 557.453125 573.207031 645.03125 468.019531 700.402344 356.574219 Z M 700.402344 356.574219 " fill-opacity="1" fill-rule="nonzero"/><g clip-path="url(#11c31c2163)"><path fill="#ffffff" d="M 368.160156 709.4375 C 368.160156 711.207031 368.074219 712.972656 367.902344 714.730469 C 367.726562 716.488281 367.46875 718.238281 367.125 719.96875 C 366.777344 721.703125 366.351562 723.417969 365.835938 725.109375 C 365.324219 726.800781 364.730469 728.464844 364.050781 730.097656 C 363.375 731.730469 362.621094 733.328125 361.785156 734.886719 C 360.953125 736.445312 360.046875 737.960938 359.0625 739.429688 C 358.082031 740.902344 357.027344 742.320312 355.90625 743.6875 C 354.785156 745.050781 353.601562 746.359375 352.351562 747.609375 C 351.097656 748.859375 349.792969 750.046875 348.425781 751.167969 C 347.058594 752.289062 345.640625 753.34375 344.167969 754.324219 C 342.699219 755.308594 341.183594 756.214844 339.625 757.046875 C 338.066406 757.882812 336.46875 758.636719 334.835938 759.3125 C 333.203125 759.988281 331.539062 760.585938 329.847656 761.097656 C 328.15625 761.609375 326.441406 762.039062 324.710938 762.386719 C 322.976562 762.730469 321.226562 762.988281 319.46875 763.164062 C 317.710938 763.335938 315.945312 763.421875 314.175781 763.421875 C 312.410156 763.421875 310.644531 763.335938 308.886719 763.164062 C 307.125 762.988281 305.378906 762.730469 303.644531 762.386719 C 301.910156 762.039062 300.199219 761.613281 298.507812 761.097656 C 296.816406 760.585938 295.152344 759.988281 293.519531 759.3125 C 291.886719 758.636719 290.289062 757.882812 288.730469 757.046875 C 287.171875 756.214844 285.65625 755.308594 284.1875 754.324219 C 282.714844 753.34375 281.296875 752.289062 279.929688 751.167969 C 278.5625 750.046875 277.253906 748.859375 276.003906 747.609375 C 274.753906 746.359375 273.570312 745.050781 272.449219 743.6875 C 271.324219 742.320312 270.273438 740.902344 269.292969 739.429688 C 268.308594 737.960938 267.402344 736.445312 266.566406 734.886719 C 265.734375 733.328125 264.980469 731.730469 264.304688 730.097656 C 263.625 728.464844 263.03125 726.800781 262.519531 725.109375 C 262.003906 723.417969 261.574219 721.703125 261.230469 719.96875 C 260.886719 718.238281 260.628906 716.488281 260.453125 714.730469 C 260.28125 712.972656 260.195312 711.207031 260.195312 709.4375 C 260.195312 707.671875 260.28125 705.90625 260.453125 704.148438 C 260.628906 702.386719 260.886719 700.640625 261.230469 698.90625 C 261.574219 697.171875 262.003906 695.460938 262.519531 693.769531 C 263.03125 692.078125 263.625 690.414062 264.304688 688.78125 C 264.980469 687.148438 265.734375 685.550781 266.566406 683.992188 C 267.402344 682.433594 268.308594 680.917969 269.292969 679.445312 C 270.273438 677.976562 271.324219 676.558594 272.449219 675.191406 C 273.570312 673.824219 274.753906 672.515625 276.003906 671.265625 C 277.253906 670.015625 278.5625 668.832031 279.929688 667.710938 C 281.296875 666.585938 282.714844 665.535156 284.1875 664.554688 C 285.65625 663.570312 287.171875 662.664062 288.730469 661.828125 C 290.289062 660.996094 291.886719 660.242188 293.519531 659.5625 C 295.152344 658.886719 296.816406 658.292969 298.507812 657.78125 C 300.199219 657.265625 301.910156 656.835938 303.644531 656.492188 C 305.378906 656.148438 307.125 655.886719 308.886719 655.714844 C 310.644531 655.542969 312.410156 655.457031 314.175781 655.457031 C 315.945312 655.457031 317.710938 655.542969 319.46875 655.714844 C 321.226562 655.886719 322.976562 656.148438 324.710938 656.492188 C 326.441406 656.835938 328.15625 657.265625 329.847656 657.78125 C 331.539062 658.292969 333.203125 658.886719 334.835938 659.566406 C 336.46875 660.242188 338.066406 660.996094 339.625 661.828125 C 341.183594 662.664062 342.699219 663.570312 344.167969 664.554688 C 345.640625 665.535156 347.058594 666.585938 348.425781 667.710938 C 349.792969 668.832031 351.097656 670.015625 352.351562 671.265625 C 353.601562 672.515625 354.785156 673.824219 355.90625 675.191406 C 357.027344 676.558594 358.082031 677.976562 359.0625 679.445312 C 360.046875 680.917969 360.953125 682.433594 361.785156 683.992188 C 362.621094 685.550781 363.375 687.148438 364.050781 688.78125 C 364.726562 690.414062 365.324219 692.078125 365.835938 693.769531 C 366.351562 695.460938 366.777344 697.171875 367.125 698.90625 C 367.46875 700.640625 367.726562 702.386719 367.902344 704.148438 C 368.074219 705.90625 368.160156 707.671875 368.160156 709.4375 Z M 368.160156 709.4375 " fill-opacity="1" fill-rule="nonzero"/></g><g clip-path="url(#0dcb829a72)"><path fill="#ffffff" d="M 599.851562 709.4375 C 599.851562 711.207031 599.765625 712.972656 599.589844 714.730469 C 599.417969 716.488281 599.160156 718.238281 598.8125 719.96875 C 598.46875 721.703125 598.039062 723.417969 597.527344 725.109375 C 597.011719 726.800781 596.417969 728.464844 595.742188 730.097656 C 595.066406 731.730469 594.308594 733.328125 593.476562 734.886719 C 592.644531 736.445312 591.734375 737.960938 590.753906 739.429688 C 589.769531 740.902344 588.71875 742.320312 587.597656 743.6875 C 586.476562 745.050781 585.289062 746.359375 584.039062 747.609375 C 582.789062 748.859375 581.480469 750.046875 580.113281 751.167969 C 578.746094 752.289062 577.328125 753.34375 575.859375 754.324219 C 574.390625 755.308594 572.875 756.214844 571.316406 757.046875 C 569.753906 757.882812 568.160156 758.636719 566.527344 759.3125 C 564.890625 759.988281 563.230469 760.585938 561.539062 761.097656 C 559.847656 761.609375 558.132812 762.039062 556.398438 762.386719 C 554.664062 762.730469 552.917969 762.988281 551.160156 763.164062 C 549.398438 763.335938 547.636719 763.421875 545.867188 763.421875 C 544.097656 763.421875 542.335938 763.335938 540.574219 763.164062 C 538.816406 762.988281 537.070312 762.730469 535.335938 762.386719 C 533.601562 762.039062 531.886719 761.613281 530.195312 761.097656 C 528.503906 760.585938 526.84375 759.988281 525.207031 759.3125 C 523.574219 758.636719 521.980469 757.882812 520.417969 757.046875 C 518.859375 756.214844 517.34375 755.308594 515.875 754.324219 C 514.40625 753.34375 512.988281 752.289062 511.621094 751.167969 C 510.253906 750.046875 508.945312 748.859375 507.695312 747.609375 C 506.445312 746.359375 505.257812 745.050781 504.136719 743.6875 C 503.015625 742.320312 501.964844 740.902344 500.980469 739.429688 C 500 737.960938 499.089844 736.445312 498.257812 734.886719 C 497.425781 733.328125 496.667969 731.730469 495.992188 730.097656 C 495.316406 728.464844 494.722656 726.800781 494.207031 725.109375 C 493.695312 723.417969 493.265625 721.703125 492.921875 719.96875 C 492.574219 718.238281 492.316406 716.488281 492.144531 714.730469 C 491.96875 712.972656 491.882812 711.207031 491.882812 709.4375 C 491.882812 707.671875 491.96875 705.90625 492.144531 704.148438 C 492.316406 702.386719 492.574219 700.640625 492.921875 698.90625 C 493.265625 697.171875 493.695312 695.460938 494.207031 693.769531 C 494.722656 692.078125 495.316406 690.414062 495.992188 688.78125 C 496.667969 687.148438 497.425781 685.550781 498.257812 683.992188 C 499.089844 682.433594 500 680.917969 500.980469 679.445312 C 501.964844 677.976562 503.015625 676.558594 504.136719 675.191406 C 505.257812 673.824219 506.445312 672.515625 507.695312 671.265625 C 508.945312 670.015625 510.253906 668.832031 511.621094 667.710938 C 512.988281 666.585938 514.40625 665.535156 515.875 664.554688 C 517.34375 663.570312 518.859375 662.664062 520.417969 661.828125 C 521.980469 660.996094 523.574219 660.242188 525.207031 659.5625 C 526.84375 658.886719 528.503906 658.292969 530.195312 657.78125 C 531.886719 657.265625 533.601562 656.835938 535.335938 656.492188 C 537.070312 656.148438 538.816406 655.886719 540.574219 655.714844 C 542.335938 655.542969 544.097656 655.457031 545.867188 655.457031 C 547.636719 655.457031 549.398438 655.542969 551.160156 655.714844 C 552.917969 655.886719 554.664062 656.148438 556.398438 656.492188 C 558.132812 656.835938 559.847656 657.265625 561.539062 657.78125 C 563.230469 658.292969 564.890625 658.886719 566.527344 659.566406 C 568.160156 660.242188 569.753906 660.996094 571.316406 661.828125 C 572.875 662.664062 574.390625 663.570312 575.859375 664.554688 C 577.328125 665.535156 578.746094 666.585938 580.113281 667.710938 C 581.480469 668.832031 582.789062 670.015625 584.039062 671.265625 C 585.289062 672.515625 586.476562 673.824219 587.597656 675.191406 C 588.71875 676.558594 589.769531 677.976562 590.753906 679.445312 C 591.734375 680.917969 592.644531 682.433594 593.476562 683.992188 C 594.308594 685.550781 595.066406 687.148438 595.742188 688.78125 C 596.417969 690.414062 597.011719 692.078125 597.527344 693.769531 C 598.039062 695.460938 598.46875 697.171875 598.8125 698.90625 C 599.160156 700.640625 599.417969 702.386719 599.589844 704.148438 C 599.765625 705.90625 599.851562 707.671875 599.851562 709.4375 Z M 599.851562 709.4375 " fill-opacity="1" fill-rule="nonzero"/></g><g clip-path="url(#dc0fe2f2c2)"><path fill="#82313c" d="M 809.53125 220.109375 L 731.21875 192.308594 C 721.488281 226.132812 708.050781 266.679688 689.976562 307.921875 C 616.300781 477.285156 467.789062 660.550781 196.480469 445.542969 C 155.703125 413.339844 112.144531 372.097656 65.804688 320.433594 C 70.902344 325.527344 118.167969 371.636719 187.675781 411.484375 C 313.019531 483.308594 511.34375 534.28125 667.039062 286.375 C 685.113281 257.644531 702.488281 224.976562 719.171875 187.90625 L 643.175781 161.03125 L 710.367188 103.800781 L 777.558594 46.574219 L 793.542969 133.457031 Z M 809.53125 220.109375 " fill-opacity="1" fill-rule="nonzero"/></g><path fill="#ffffff" d="M 633.445312 283.59375 C 564.171875 388.085938 480.996094 440.910156 385.074219 440.910156 C 306.300781 440.910156 231.695312 405.460938 176.785156 370.011719 L 151.996094 274.789062 C 147.824219 258.339844 138.558594 245.597656 127.4375 239.109375 L 19.46875 239.109375 C 9.042969 239.109375 0.46875 230.535156 0.46875 220.109375 C 0.46875 209.683594 9.042969 201.113281 19.46875 201.113281 L 188.136719 201.113281 C 203.660156 201.113281 217.332031 211.074219 221.964844 225.902344 L 226.136719 239.109375 L 240.5 283.59375 Z M 633.445312 283.59375 " fill-opacity="1" fill-rule="nonzero"/></svg>